<?xml version="1.0" standalone="no"?>
<!DOCTYPE svg PUBLIC "-//W3C//DTD SVG 20010904//EN"
 "http://www.w3.org/TR/2001/REC-SVG-20010904/DTD/svg10.dtd">
<svg version="1.0" xmlns="http://www.w3.org/2000/svg"
 width="200" height="150" viewBox="0 0 500.000000 500.000000"
 preserveAspectRatio="xMidYMid meet">

<g transform="translate(0.000000,500.000000) scale(0.100000,-0.100000)"
fill="#e2d703" stroke="none">
<path d="M977 3162 c-10 -10 -17 -27 -17 -36 0 -12 -5 -16 -14 -13 -20 8 -38
-16 -30 -39 4 -11 20 -31 36 -46 25 -24 28 -34 28 -86 0 -143 -41 -444 -69
-507 -27 -61 -61 -81 -111 -66 -50 15 -178 107 -256 183 -58 56 -61 62 -51 88
20 54 -41 112 -96 91 -24 -9 -28 -16 -25 -43 3 -29 6 -33 31 -31 29 2 34 -6
15 -25 -19 -19 -36 -14 -53 17 -8 16 -24 33 -36 36 -61 20 -33 -85 28 -107 26
-9 46 -31 82 -88 63 -98 181 -302 181 -313 0 -4 25 -65 56 -134 30 -69 54
-127 52 -128 -2 -2 -25 -13 -51 -24 -63 -27 -54 -45 18 -36 42 5 54 3 58 -9 8
-20 27 -21 27 -2 0 10 24 15 93 20 417 30 503 30 780 -1 136 -15 147 -18 148
-37 0 -20 1 -20 12 3 10 22 15 23 68 17 87 -10 93 28 9 53 -22 6 -40 17 -40
23 0 6 13 41 29 77 16 36 49 111 72 166 24 55 61 132 84 170 23 39 59 102 81
142 33 61 44 73 75 82 41 12 89 62 89 91 0 10 -10 22 -22 26 -17 5 -28 -1 -51
-30 -18 -23 -37 -36 -52 -36 -28 0 -42 17 -26 33 19 19 12 37 -14 37 -25 0
-45 -25 -45 -57 0 -10 -23 -37 -52 -60 -29 -22 -99 -84 -154 -137 -111 -104
-140 -122 -178 -105 -52 24 -58 66 -35 256 10 87 22 219 25 293 l7 134 34 32
c27 26 33 39 33 72 0 46 -20 72 -55 72 -30 0 -36 -18 -18 -53 10 -20 11 -32 3
-47 -13 -24 -52 -26 -70 -5 -16 19 -49 19 -57 0 -3 -9 2 -24 12 -35 20 -22 17
-36 -35 -140 -20 -41 -56 -133 -80 -205 -71 -216 -99 -265 -146 -265 -42 0
-72 41 -117 160 -55 143 -69 186 -107 330 -26 101 -28 116 -15 130 23 26 19
83 -8 108 -28 27 -58 28 -80 4z m43 -69 c0 -1 -3 -8 -6 -17 -8 -21 -31 -20
-43 2 -8 14 -5 17 20 17 16 0 29 -1 29 -2z m14 -105 c3 -18 8 -55 11 -83 3
-27 22 -120 41 -205 59 -257 114 -343 221 -343 57 0 88 24 129 99 37 68 136
363 159 477 16 73 29 94 41 63 3 -8 -4 -61 -15 -118 -26 -132 -61 -395 -61
-462 1 -137 98 -209 214 -157 54 23 157 119 253 233 42 51 69 75 79 71 10 -4
-2 -22 -45 -69 -108 -115 -231 -365 -246 -501 -7 -67 -9 -69 -49 -53 -34 13
-273 38 -427 44 -155 7 -355 -8 -472 -35 -49 -12 -90 -19 -93 -17 -2 3 -11 42
-20 89 -28 149 -148 370 -263 483 -54 53 -66 76 -42 76 5 0 34 -31 65 -70 65
-79 172 -170 237 -199 174 -79 270 64 272 404 1 77 -2 177 -7 223 -5 54 -4 82
3 82 5 0 12 -15 15 -32z"/>
<path d="M3366 2684 c-32 -32 -13 -74 34 -74 31 0 50 17 50 45 0 43 -53 61
-84 29z"/>
<path d="M3634 2694 c-36 -8 -66 -49 -71 -98 -4 -32 -10 -46 -24 -49 -26 -7
-25 -37 1 -37 19 0 20 -7 20 -94 0 -86 -2 -95 -20 -101 -11 -3 -20 -13 -20
-21 0 -11 18 -14 85 -14 69 0 85 3 85 15 0 8 -6 15 -14 15 -34 0 -46 29 -46
116 l0 84 40 0 c33 0 40 3 40 20 0 16 -7 20 -35 20 -42 0 -51 15 -38 67 7 30
14 39 34 41 21 3 25 -1 24 -25 0 -23 5 -29 28 -31 22 -3 30 1 34 17 15 56 23
6 23 -138 0 -151 -1 -160 -20 -166 -11 -3 -20 -13 -20 -21 0 -11 17 -14 75
-14 59 0 75 3 75 15 0 8 -9 19 -20 25 -19 10 -20 21 -20 191 l0 180 -62 -1
c-35 -1 -79 1 -98 3 -19 3 -45 3 -56 1z"/>
<path d="M3955 2676 c-22 -33 -5 -66 33 -66 49 0 71 33 46 69 -20 29 -60 27
-79 -3z"/>
<path d="M2987 2683 c-13 -13 -7 -28 16 -38 21 -10 22 -15 27 -189 5 -178 11
-206 39 -173 10 12 18 12 55 -1 38 -14 48 -14 82 -1 56 21 87 82 81 163 -3 51
-8 63 -35 87 -39 35 -88 38 -126 8 l-26 -20 0 85 0 86 -53 0 c-30 0 -57 -3
-60 -7z m207 -195 c19 -27 21 -103 3 -138 -14 -27 -36 -35 -73 -26 -22 6 -24
11 -24 74 0 77 17 112 55 112 13 0 31 -10 39 -22z"/>
<path d="M2480 2636 c0 -8 10 -16 23 -18 21 -3 22 -7 25 -136 3 -149 -4 -175
-46 -170 -24 3 -27 7 -27 38 0 31 -3 35 -27 38 -22 3 -30 -2 -39 -22 -27 -58
60 -111 141 -87 68 20 80 52 80 204 0 120 1 129 20 134 11 3 20 12 20 19 0 11
-19 14 -85 14 -67 0 -85 -3 -85 -14z"/>
<path d="M2750 2542 c-68 -34 -93 -145 -47 -213 27 -41 90 -64 144 -54 116 22
152 196 54 262 -41 28 -102 30 -151 5z m106 -43 c14 -16 19 -36 19 -86 0 -56
-3 -67 -23 -83 -48 -39 -92 7 -92 95 0 85 51 124 96 74z"/>
<path d="M3368 2553 c-41 -5 -52 -27 -18 -38 18 -6 20 -15 20 -100 0 -85 -2
-94 -20 -100 -11 -3 -20 -13 -20 -21 0 -11 17 -14 80 -14 63 0 80 3 80 14 0 8
-9 18 -20 21 -19 6 -20 15 -20 126 0 134 9 121 -82 112z"/>
<path d="M3958 2553 c-42 -5 -50 -23 -15 -38 20 -9 22 -18 25 -98 3 -85 2 -87
-23 -99 -14 -6 -25 -17 -25 -25 0 -10 20 -13 80 -13 67 0 80 3 80 16 0 9 -9
18 -20 21 -19 5 -20 14 -20 124 0 134 9 121 -82 112z"/>
<path d="M4097 2543 c-12 -11 -8 -20 11 -25 10 -3 37 -28 61 -56 l43 -52 -56
-56 c-31 -30 -56 -60 -56 -65 0 -5 25 -9 55 -9 55 0 69 12 44 37 -8 8 -6 18 7
37 24 33 28 32 54 -4 19 -26 19 -31 6 -36 -9 -3 -16 -12 -16 -20 0 -11 18 -14
80 -14 44 0 80 4 80 9 0 5 -27 37 -60 71 l-60 63 33 41 c19 22 44 45 55 51 41
18 25 35 -32 35 -58 0 -79 -13 -52 -33 14 -11 13 -14 -4 -37 -18 -24 -19 -24
-39 -6 -22 20 -28 46 -11 46 6 0 10 7 10 15 0 12 -15 15 -73 15 -41 0 -77 -3
-80 -7z"/>
</g>
</svg>
